<svg width="22" height="60" viewBox="0 0 22 60" fill="none" xmlns="http://www.w3.org/2000/svg">
<g clip-path="url(#clip0_2_997)">
<path d="M1 0L0.999997 60" stroke="#00605D" stroke-linecap="round"/>
<path d="M6 29.5C5.72386 29.5 5.5 29.7239 5.5 30C5.5 30.2761 5.72386 30.5 6 30.5V29.5ZM21.3536 30.3536C21.5488 30.1583 21.5488 29.8417 21.3536 29.6464L18.1716 26.4645C17.9763 26.2692 17.6597 26.2692 17.4645 26.4645C17.2692 26.6597 17.2692 26.9763 17.4645 27.1716L20.2929 30L17.4645 32.8284C17.2692 33.0237 17.2692 33.3403 17.4645 33.5355C17.6597 33.7308 17.9763 33.7308 18.1716 33.5355L21.3536 30.3536ZM6 30.5H21V29.5H6V30.5Z" fill="#00605D"/>
</g>
<defs>
<clipPath id="clip0_2_997">
<rect width="22" height="60" fill="white"/>
</clipPath>
</defs>
</svg>
