<svg width="47" height="27" viewBox="0 0 47 27" fill="none" xmlns="http://www.w3.org/2000/svg">
<path d="M18.189 20.1956C13.12 19.5359 8.8212 18.2949 5.29272 16.4729C1.76424 14.6508 0 12.5784 0 10.2555C0 7.49676 2.27863 5.09783 6.83589 3.0587C11.3931 1.01957 16.9479 0 23.5 0C30.0521 0 35.6069 1.01957 40.1641 3.0587C44.7214 5.09783 47 7.49676 47 10.2555C47 11.9921 45.9477 13.6595 43.8432 15.2576C41.7404 16.8575 38.9308 18.1138 35.4145 19.0265C35.0542 19.1427 34.7191 19.1043 34.4092 18.9111C34.0994 18.7197 33.9444 18.4462 33.9444 18.0907C33.9444 17.6822 34.0724 17.3352 34.3283 17.0498C34.5842 16.7643 34.8975 16.5592 35.2683 16.4344C38.2154 15.5798 40.4722 14.5585 42.0389 13.3706C43.6056 12.1827 44.3889 11.1443 44.3889 10.2555C44.3889 8.78895 42.528 7.14039 38.8063 5.30978C35.0846 3.47918 29.9825 2.56387 23.5 2.56387C17.0175 2.56387 11.9145 3.47918 8.19106 5.30978C4.46761 7.14039 2.60763 8.78895 2.61111 10.2555C2.61111 11.4793 4.05593 12.8476 6.94556 14.3602C9.83519 15.8746 13.4925 16.9455 17.9174 17.5728L13.536 13.2732C13.2923 13.0339 13.1617 12.7399 13.1443 12.3912C13.1269 12.0425 13.2575 11.7314 13.536 11.4579C13.8145 11.1845 14.1235 11.0477 14.4629 11.0477C14.8024 11.0477 15.1096 11.1845 15.3847 11.4579L21.6226 17.583C22.0439 17.9967 22.2545 18.4795 22.2545 19.0316C22.2545 19.5837 22.0439 20.0674 21.6226 20.4828L15.3847 26.6053C15.141 26.8446 14.8442 26.9754 14.4943 26.9976C14.1444 27.0198 13.825 26.889 13.536 26.6053C13.2592 26.3318 13.1182 26.0319 13.113 25.7054C13.1078 25.3789 13.2444 25.0738 13.5229 24.7901L18.189 20.1956Z" fill="#00B09B"/>
</svg>
